<?xml version="1.0" encoding="UTF-8"?>
<svg width="101px" height="101px" viewBox="0 0 101 101" version="1.1" xmlns="http://www.w3.org/2000/svg" xmlns:xlink="http://www.w3.org/1999/xlink">
    <title>icon</title>
    <g id="Page-1" stroke="none" stroke-width="1" fill="none" fill-rule="evenodd">
        <g id="визитки-в-печать" transform="translate(-24.000000, -49.000000)">
            <g id="icon" transform="translate(25.221500, 50.934100)">
                <path d="M48.822,97.644 C75.712,97.644 97.644,75.711 97.644,48.822 C97.644,21.932 75.712,-7.10542736e-15 48.822,-7.10542736e-15 C21.932,-7.10542736e-15 0,21.932 0,48.822 C0,75.711 21.932,97.644 48.822,97.644 Z" id="Stroke-54" stroke="#1A1919" stroke-width="0.806"></path>
                <line x1="74.3464" y1="47.4174" x2="74.3464" y2="90.4484" id="Stroke-56" stroke="#1A1919" stroke-width="0.806"></line>
                <line x1="71.2917" y1="49.9145" x2="71.2807" y2="92.1835" id="Stroke-58" stroke="#1A1919" stroke-width="0.806"></line>
                <line x1="68.2145" y1="62.644" x2="68.2145" y2="93.64" id="Stroke-60" stroke="#1A1919" stroke-width="0.806"></line>
                <line x1="65.1491" y1="62.9575" x2="65.1491" y2="94.8465" id="Stroke-62" stroke="#1A1919" stroke-width="0.806"></line>
                <line x1="62.0847" y1="63.7065" x2="62.0847" y2="95.8195" id="Stroke-64" stroke="#1A1919" stroke-width="0.806"></line>
                <path d="M75.6374,8.0336 C62.0374,29.6156 42.7834,44.8126 20.9774,57.5286" id="Stroke-66" stroke="#1A1919" stroke-width="0.806"></path>
                <path d="M72.8825,6.6137 C63.3475,21.6967 50.9585,33.4717 37.1465,43.4167" id="Stroke-68" stroke="#1A1919" stroke-width="0.806"></path>
                <path d="M70.3513,4.85 C62.2183,17.85 51.2883,29.57 35.5883,40.859" id="Stroke-70" stroke="#1A1919" stroke-width="0.806"></path>
                <path d="M67.3337,3.8456 C58.1017,18.3616 46.8177,29.0716 33.7697,38.3866" id="Stroke-72" stroke="#1A1919" stroke-width="0.806"></path>
                <path d="M64.3552,2.6747 C56.0232,16.1077 44.4932,26.9127 31.7172,36.0777" id="Stroke-74" stroke="#1A1919" stroke-width="0.806"></path>
                <path d="M61.4528,1.498 C53.5318,13.557 43.0468,24.063 28.8528,34.417" id="Stroke-76" stroke="#1A1919" stroke-width="0.806"></path>
                <path d="M81.0358,62.8159 C81.1088,59.6599 85.1908,57.8309 86.7688,61.9799 C89.8078,69.9729 79.7098,77.8549 74.3468,82.3379" id="Stroke-78" stroke="#1A1919" stroke-width="0.806"></path>
                <path d="M81.0729,62.4213 C81.4429,59.5463 84.5189,56.5113 88.8629,57.9183 C94.6909,59.8053 94.1449,68.7173 90.8769,73.6353" id="Stroke-80" stroke="#1A1919" stroke-width="0.806"></path>
                <path d="M74.3464,86.3715 C78.9084,82.9225 81.2664,81.4255 85.0524,76.7365 C87.1924,74.0885 88.8884,71.6985 89.7924,67.9855 C90.5154,65.0205 90.5554,62.6415 89.6374,60.7485 C88.7344,58.8875 86.7284,56.8815 83.6744,58.4335" id="Stroke-82" stroke="#1A1919" stroke-width="0.806"></path>
                <path d="M61.9694,92.6157 C36.4664,99.4877 14.4964,86.2017 6.2044,65.3307 C-0.8376,47.6047 11.0594,35.6437 15.2384,32.7177 C15.8964,32.2567 16.3624,32.0197 16.5324,32.0197" id="Stroke-84" stroke="#1A1919" stroke-width="0.806"></path>
                <path d="M61.9987,89.4907 C38.9947,95.3467 20.1247,85.6987 10.8107,67.9467 C7.1307,60.9307 6.2507,53.6047 8.3757,46.9977 C10.7487,39.6177 15.5697,35.0697 21.9347,32.0377" id="Stroke-86" stroke="#1A1919" stroke-width="0.806"></path>
                <path d="M62.0847,86.3588 C41.8567,91.5818 21.0537,83.6558 12.2917,63.8708 C11.3187,61.6738 10.7267,59.3588 10.4947,57.0508 C10.1417,53.5368 10.4327,50.0448 11.7587,46.7858 C14.4257,40.2318 20.3417,35.1398 27.0397,33.3928" id="Stroke-88" stroke="#1A1919" stroke-width="0.806"></path>
                <path d="M62.0847,83.3041 C51.4777,86.0791 42.5227,85.2831 35.0277,82.0461 C27.0007,78.5811 20.6517,72.3081 15.9367,64.2031 C15.6157,63.6521 15.3817,63.0751 15.1217,62.5061 C13.6217,59.2221 13.0677,55.6911 13.5567,52.3971 C14.9107,43.2651 22.9587,35.4671 32.0847,36.2331" id="Stroke-90" stroke="#1A1919" stroke-width="0.806"></path>
                <path d="M62.0847,79.4457 C56.5937,74.1977 59.8267,67.8657 62.5177,62.8397" id="Stroke-92" stroke="#1A1919" stroke-width="0.806"></path>
                <path d="M69.2575,47.3408 L73.5135,47.3668 C75.3475,47.5078 75.9175,45.7758 74.5815,43.9968 C74.5005,43.8888 74.0905,44.4728 73.8705,44.6558 C72.2455,46.0198 70.4815,46.3848 68.8245,47.3408 L69.2575,47.3408 Z" id="Fill-94" fill="#FFFFFE"></path>
                <path d="M69.2575,47.3408 L73.5135,47.3668 C75.3475,47.5078 75.9175,45.7758 74.5815,43.9968 C74.5005,43.8888 74.0905,44.4728 73.8705,44.6558 C72.2455,46.0198 70.4815,46.3848 68.8245,47.3408 L69.2575,47.3408 Z" id="Stroke-96" stroke="#1A1919" stroke-width="0.806"></path>
                <path d="M74.3464,48.1025 C74.3494,48.3105 74.3044,48.5095 74.2304,48.7065 C73.8414,49.7425 72.5014,50.4985 71.4294,49.7745 C70.5924,49.2095 69.6404,48.1295 68.7814,47.3805" id="Stroke-98" stroke="#1A1919" stroke-width="0.806"></path>
                <path d="M1.194,59.5991 C-0.306,52.0341 2.601,40.9871 8.21,35.1551" id="Stroke-100" stroke="#1A1919" stroke-width="0.806"></path>
                <path d="M0.2726,43.6332 C1.4186,40.8272 3.7916,38.2222 6.6566,36.1782 C10.0866,33.7322 14.2236,32.0912 17.8076,31.8772 C27.3886,31.3062 37.1806,37.5132 37.6896,46.9782" id="Stroke-102" stroke="#1A1919" stroke-width="0.806"></path>
                <path d="M36.862,42.9072 C34.927,37.3632 27.383,38.9502 22.388,42.6612 C19.903,44.5082 18.503,46.8782 17.659,49.2342 C14.802,57.2012 20.095,66.9262 26.676,72.1992" id="Stroke-104" stroke="#1A1919" stroke-width="0.806"></path>
                <path d="M62.2497,63.0004 C63.2087,63.0004 64.1907,62.9954 65.1207,63.0054 C68.4607,63.0404 71.2807,62.2014 71.2807,57.9314 C71.2807,55.3124 68.5437,52.8374 70.8837,50.4484 C70.9527,50.3774 71.1847,50.1494 71.2627,50.0784" id="Stroke-106" stroke="#1A1919" stroke-width="0.806"></path>
                <path d="M48.9567,84.9643 C45.4897,83.7343 42.9527,81.2883 41.2777,78.6133 C39.4147,75.6403 38.5237,72.2093 39.0167,69.7003 C39.2997,68.2543 39.9317,66.7423 41.1007,66.0863 C44.6937,64.0683 47.2857,68.7423 45.8707,72.5853 C45.8707,72.5853 47.1127,70.9553 47.3977,70.1003 C51.2607,58.5123 31.0207,59.3653 36.9217,76.5563 C37.9187,79.4613 39.8107,82.2493 41.5777,84.0893" id="Stroke-108" stroke="#1A1919" stroke-width="0.806"></path>
                <path d="M36.6701,82.7788 C31.3071,74.9328 30.4891,62.2608 41.1131,59.2178" id="Stroke-110" stroke="#1A1919" stroke-width="0.806"></path>
                <path d="M31.4806,80.1948 C28.8556,73.8158 28.2686,67.3078 31.9046,61.9288" id="Stroke-112" stroke="#1A1919" stroke-width="0.806"></path>
                <path d="M27.0124,77.269 C23.4034,58.565 46.6684,52.992 47.8594,66.674 C47.9284,67.463 47.8664,67.92 47.8664,67.92" id="Stroke-114" stroke="#1A1919" stroke-width="0.806"></path>
                <path d="M27.5143,68.1147 C21.6943,62.1137 19.5543,56.2497 20.2013,51.9417 C20.7183,48.4967 23.1813,46.1907 25.7543,44.5427 C29.8913,41.8927 36.0073,42.9057 37.3903,47.1247" id="Stroke-116" stroke="#1A1919" stroke-width="0.806"></path>
                <path d="M35.4597,44.5766 C30.5277,47.9326 25.3217,51.3546 20.1177,54.2726" id="Stroke-118" stroke="#1A1919" stroke-width="0.806"></path>
                <path d="M32.0739,43.1176 C28.1479,45.3976 24.3299,47.9926 20.5449,50.5086" id="Stroke-120" stroke="#1A1919" stroke-width="0.806"></path>
                <path d="M57.9811,0.7485 C50.1191,12.5015 39.4131,22.6975 25.5071,32.8415" id="Stroke-122" stroke="#1A1919" stroke-width="0.806"></path>
                <path d="M45.8171,71.8129 C45.7271,72.1539 45.4701,72.7499 45.4101,72.8759 C44.0111,75.8099 47.4671,71.0279 47.1421,71.1829 L45.8171,71.8129 Z" id="Fill-124" fill="#1A1919"></path>
                <path d="M62.0847,83.3041 C51.4777,86.0791 42.5227,85.2831 35.0277,82.0461 C27.0007,78.5811 20.6517,72.3081 15.9367,64.2031 C15.6157,63.6521 15.3817,63.0751 15.1217,62.5061 C13.6217,59.2221 13.0677,55.6911 13.5567,52.3971 C14.9107,43.2651 22.9587,35.4671 32.0847,36.2331" id="Stroke-126" stroke="#1A1919" stroke-width="0.806"></path>
                <polygon id="Fill-128" fill="#1A1919" points="68.9782 47.975 68.2242 47.282 69.3002 46.751"></polygon>
                <path d="M80.7331,62.8286 C80.7331,62.8286 80.6721,64.0166 81.2371,64.5406 C81.5191,64.8026 81.4011,64.2566 81.3611,63.8696 C81.3071,63.3316 81.3201,62.7686 81.3871,62.3816 C81.6531,60.8326 80.7371,62.5166 80.7331,62.8286" id="Fill-130" fill="#1A1919"></path>
                <path d="M37.1262,47.1821 C37.2472,47.5121 37.3762,48.1491 37.3982,48.2871 C37.9222,51.4951 38.0342,45.5961 37.8552,45.9081 L37.1262,47.1821 Z" id="Fill-132" fill="#1A1919"></path>
                <path d="M75.6374,8.0336 C77.7814,17.2556 74.5394,18.6626 73.8984,24.2046 C73.3484,28.9526 76.3164,33.2326 77.8344,37.3176 C78.1424,38.1476 74.2574,39.3606 74.3384,43.1316 C74.3564,43.9676 74.3334,44.2576 74.3334,44.2576" id="Stroke-134" stroke="#1A1919" stroke-width="0.806"></path>
            </g>
        </g>
    </g>
</svg>